<?xml version="1.0" encoding="UTF-8" standalone="no"?>
<!-- Created with Inkscape (http://www.inkscape.org/) -->

<svg
   xmlns:dc="http://purl.org/dc/elements/1.1/"
   xmlns:cc="http://creativecommons.org/ns#"
   xmlns:rdf="http://www.w3.org/1999/02/22-rdf-syntax-ns#"
   xmlns:svg="http://www.w3.org/2000/svg"
   xmlns="http://www.w3.org/2000/svg"
   version="1.1"
   width="100%"
   height="100%"
   viewBox="0 0 81.985 39.412"
   id="svg3112"
   xml:space="preserve"><metadata
   id="metadata3125"><rdf:RDF><cc:Work
       rdf:about=""><dc:format>image/svg+xml</dc:format><dc:type
         rdf:resource="http://purl.org/dc/dcmitype/StillImage" /><dc:title></dc:title></cc:Work></rdf:RDF></metadata>
		 <defs
   id="defs3123">
      <filter id="f1" height="116%">
      <feGaussianBlur in="SourceAlpha" stdDeviation="0.6"/> 
      <feOffset dx="0" dy="0" result="offsetblur"/> 
      <feMerge> 
        <feMergeNode/>
        <feMergeNode in="SourceGraphic"/> 
      </feMerge>
    </filter>
  </defs>
<style
   type="text/css"
   id="style3114" />
 

<path filter="url(#f1)"
   d="m 21.840904,36.423104 a 4.2566961,4.2566961 0 0 1 -8.513391,0 4.2566961,4.2566961 0 1 1 8.513391,0 z"
   id="path3129-45-1-9"
   style="fill:#00a827;fill-opacity:1;stroke:#ffffff;stroke-width:0;stroke-linecap:round;stroke-linejoin:miter;stroke-miterlimit:4;stroke-opacity:1;stroke-dasharray:none" /><path filter="url(#f1)"
   d="m 19.661883,17.115019 a 7.7025934,7.7025934 0 1 1 -15.4051868,0 7.7025934,7.7025934 0 1 1 15.4051868,0 z"
   transform="matrix(1.1830611,0,0,1.1830611,-7.1041984,15.612768)"
   id="path3127-5"
   style="fill:#007200;fill-opacity:1;stroke:#ffffff;stroke-width:0;stroke-linecap:round;stroke-linejoin:miter;stroke-miterlimit:4;stroke-opacity:1;stroke-dasharray:none" /><path filter="url(#f1)"
   d="m 19.661883,17.115019 a 7.7025934,7.7025934 0 1 1 -15.4051868,0 7.7025934,7.7025934 0 1 1 15.4051868,0 z"
   transform="matrix(0.40862336,0,0,0.40862337,-2.5952062,9.5053795)"
   id="path3127"
   style="fill:#008000;fill-opacity:1;stroke:#ffffff;stroke-width:0;stroke-linecap:round;stroke-linejoin:miter;stroke-miterlimit:4;stroke-opacity:1;stroke-dasharray:none" /><path filter="url(#f1)"
   d="m 11.884939,30.594557 a 7.6012437,7.6012437 0 0 1 -15.2024873,0 7.6012437,7.6012437 0 1 1 15.2024873,0 z"
   id="path3131"
   style="fill:#42a300;fill-opacity:1;stroke:#ffffff;stroke-width:0;stroke-linecap:round;stroke-linejoin:miter;stroke-miterlimit:4;stroke-opacity:1;stroke-dasharray:none" /><path filter="url(#f1)"
   d="m 42.769663,31.506706 a 5.0674955,5.0674955 0 1 1 -10.134991,0 5.0674955,5.0674955 0 1 1 10.134991,0 z"
   transform="translate(-35.067072,-9.526892)"
   id="path3903"
   style="fill:#42a300;fill-opacity:1;stroke:#ffffff;stroke-width:0;stroke-linecap:round;stroke-linejoin:miter;stroke-miterlimit:4;stroke-opacity:1;stroke-dasharray:none" /><path filter="url(#f1)"
   d="m 19.661883,17.115019 a 7.7025934,7.7025934 0 1 1 -15.4051868,0 7.7025934,7.7025934 0 1 1 15.4051868,0 z"
   transform="matrix(0.57236841,0,0,0.57236841,-4.1086717,15.224218)"
   id="path3127-7-8"
   style="fill:#008a00;fill-opacity:1;stroke:#ffffff;stroke-width:0;stroke-linecap:round;stroke-linejoin:miter;stroke-miterlimit:4;stroke-opacity:1;stroke-dasharray:none" /><path filter="url(#f1)"
   d="m 30.607674,21.473066 a 4.3580461,4.3580461 0 1 1 -8.716092,0 4.3580461,4.3580461 0 1 1 8.716092,0 z"
   transform="matrix(0.6976744,0,0,0.69767443,-15.881295,4.3635095)"
   id="path3901"
   style="fill:#00c34d;fill-opacity:1;stroke:#ffffff;stroke-width:0;stroke-linecap:round;stroke-linejoin:miter;stroke-miterlimit:4;stroke-opacity:1;stroke-dasharray:none" /><path filter="url(#f1)"
   d="m 53.107352,25.932463 a 4.7634459,4.7634459 0 1 1 -9.526891,0 4.7634459,4.7634459 0 1 1 9.526891,0 z"
   transform="matrix(0.75531914,0,0,0.75531914,-33.119855,5.5850528)"
   id="path3911-9-5"
   style="fill:#06821b;fill-opacity:1;stroke:#ffffff;stroke-width:0;stroke-linecap:round;stroke-linejoin:miter;stroke-miterlimit:4;stroke-opacity:1;stroke-dasharray:none" /><path filter="url(#f1)"
   d="m 53.107352,25.932463 a 4.7634459,4.7634459 0 1 1 -9.526891,0 4.7634459,4.7634459 0 1 1 9.526891,0 z"
   transform="matrix(0.73404256,0,0,0.73404256,-21.753573,13.940752)"
   id="path3911"
   style="fill:#4b9500;fill-opacity:1;stroke:#ffffff;stroke-width:0;stroke-linecap:round;stroke-linejoin:miter;stroke-miterlimit:4;stroke-opacity:1;stroke-dasharray:none" /><path filter="url(#f1)"
   d="m 53.107352,25.932463 a 4.7634459,4.7634459 0 1 1 -9.526891,0 4.7634459,4.7634459 0 1 1 9.526891,0 z"
   transform="matrix(1.0319149,0,0,1.0319149,-41.272055,8.344535)"
   id="path3911-7"
   style="fill:#32c00b;fill-opacity:1;stroke:#ffffff;stroke-width:0;stroke-linecap:round;stroke-linejoin:miter;stroke-miterlimit:4;stroke-opacity:1;stroke-dasharray:none" /><path filter="url(#f1)"
   d="m 34.053571,30.797258 a 9.6282415,9.6282415 0 1 1 -19.256483,0 9.6282415,9.6282415 0 1 1 19.256483,0 z"
   transform="matrix(0.35263155,0,0,0.35263155,-4.9645463,25.767578)"
   id="path3129-45-1-5"
   style="fill:#1cc844;fill-opacity:1;stroke:#ffffff;stroke-width:0;stroke-linecap:round;stroke-linejoin:miter;stroke-miterlimit:4;stroke-opacity:1;stroke-dasharray:none" /><path filter="url(#f1)"
   d="m 53.107352,25.932463 a 4.7634459,4.7634459 0 1 1 -9.526891,0 4.7634459,4.7634459 0 1 1 9.526891,0 z"
   transform="translate(-43.681811,3.9256479)"
   id="path3911-0"
   style="fill:#079c21;fill-opacity:1;stroke:#ffffff;stroke-width:0;stroke-linecap:round;stroke-linejoin:miter;stroke-miterlimit:4;stroke-opacity:1;stroke-dasharray:none" /><path filter="url(#f1)"
   d="m 15.759911,30.391859 a 3.3952218,3.3952218 0 0 1 -6.7904435,0 3.3952218,3.3952218 0 1 1 6.7904435,0 z"
   id="path3129-45-1"
   style="fill:#00e435;fill-opacity:1;stroke:#ffffff;stroke-width:0;stroke-linecap:round;stroke-linejoin:miter;stroke-miterlimit:4;stroke-opacity:1;stroke-dasharray:none" /><path filter="url(#f1)"
   d="m 34.053571,30.797258 a 9.6282415,9.6282415 0 1 1 -19.256483,0 9.6282415,9.6282415 0 1 1 19.256483,0 z"
   transform="matrix(0.38655693,0,0,0.38655693,0.34550552,21.832824)"
   id="path3129-45-6"
   style="fill:#67cd32;fill-opacity:1;stroke:#ffffff;stroke-width:0;stroke-linecap:round;stroke-linejoin:miter;stroke-miterlimit:4;stroke-opacity:1;stroke-dasharray:none" /><path filter="url(#f1)"
   d="m 9.5808853,22.993315 a 2.9391474,2.9391474 0 1 1 -5.8782943,0 2.9391474,2.9391474 0 1 1 5.8782943,0 z"
   id="path3911-9"
   style="fill:#079c21;fill-opacity:1;stroke:#ffffff;stroke-width:0;stroke-linecap:round;stroke-linejoin:miter;stroke-miterlimit:4;stroke-opacity:1;stroke-dasharray:none" /><path filter="url(#f1)"
   d="m 34.053571,30.797258 a 9.6282415,9.6282415 0 1 1 -19.256483,0 9.6282415,9.6282415 0 1 1 19.256483,0 z"
   transform="matrix(0.33157892,0,0,0.33157892,1.5056402,17.163317)"
   id="path3129-45"
   style="fill:#00ff00;fill-opacity:1;stroke:#ffffff;stroke-width:0;stroke-linecap:round;stroke-linejoin:miter;stroke-miterlimit:4;stroke-opacity:1;stroke-dasharray:none" /><path filter="url(#f1)"
   d="m 2.0269975,7.2840768 a 1.621599,1.621599 0 0 1 -3.243198,0 1.621599,1.621599 0 1 1 3.243198,0 z"
   id="path3905"
   style="fill:#42a300;fill-opacity:1;stroke:#ffffff;stroke-width:0;stroke-linecap:round;stroke-linejoin:miter;stroke-miterlimit:4;stroke-opacity:1;stroke-dasharray:none" /><path filter="url(#f1)"
   d="m 2.9391472,9.9158546 a 2.179023,2.179023 0 0 1 -4.358046,0 2.179023,2.179023 0 1 1 4.358046,0 z"
   id="path3127-1"
   style="fill:#008000;fill-opacity:1;stroke:#ffffff;stroke-width:0;stroke-linecap:round;stroke-linejoin:miter;stroke-miterlimit:4;stroke-opacity:1;stroke-dasharray:none" /><path filter="url(#f1)"
   d="m 1.5171328,5.409105 a 1.373021,1.3682236 0 0 1 -2.7460421,0 1.373021,1.3682236 0 1 1 2.7460421,0 z"
   id="path3129-5"
   style="fill:#00ff00;fill-opacity:1;stroke:#ffffff;stroke-width:0;stroke-linecap:round;stroke-linejoin:miter;stroke-miterlimit:4;stroke-opacity:1;stroke-dasharray:none" /><path filter="url(#f1)"
   d="m 19.661883,17.115019 a 7.7025934,7.7025934 0 1 1 -15.4051868,0 7.7025934,7.7025934 0 1 1 15.4051868,0 z"
   transform="matrix(0.5181254,0,0,0.5181254,15.888309,28.932243)"
   id="path3127-7"
   style="fill:#008a00;fill-opacity:1;stroke:#ffffff;stroke-width:0;stroke-linecap:round;stroke-linejoin:miter;stroke-miterlimit:4;stroke-opacity:1;stroke-dasharray:none" /><path filter="url(#f1)"
   d="m 34.053571,30.797258 a 9.6282415,9.6282415 0 1 1 -19.256483,0 9.6282415,9.6282415 0 1 1 19.256483,0 z"
   transform="matrix(0.27542392,0,0,0.27542392,11.160942,29.254469)"
   id="path3129"
   style="fill:#0cb43e;fill-opacity:1;stroke:#ffffff;stroke-width:0;stroke-linecap:round;stroke-linejoin:miter;stroke-miterlimit:4;stroke-opacity:1;stroke-dasharray:none" /><path filter="url(#f1)"
   d="m 53.107352,25.932463 a 4.7634459,4.7634459 0 1 1 -9.526891,0 4.7634459,4.7634459 0 1 1 9.526891,0 z"
   transform="matrix(0.64893618,0,0,0.64893618,-16.372323,17.668017)"
   id="path3911-4"
   style="fill:#079c21;fill-opacity:1;stroke:#ffffff;stroke-width:0;stroke-linecap:round;stroke-linejoin:miter;stroke-miterlimit:4;stroke-opacity:1;stroke-dasharray:none" /><path filter="url(#f1)"
   d="m 18.371331,32.189161 a 1.925648,1.925648 0 0 1 -3.851296,0 1.925648,1.925648 0 1 1 3.851296,0 z"
   id="path3129-82"
   style="fill:#41d400;fill-opacity:1;stroke:#ffffff;stroke-width:0;stroke-linecap:round;stroke-linejoin:miter;stroke-miterlimit:4;stroke-opacity:1;stroke-dasharray:none" /><path filter="url(#f1)"
   d="m 34.053571,30.797258 a 9.6282415,9.6282415 0 1 1 -19.256483,0 9.6282415,9.6282415 0 1 1 19.256483,0 z"
   transform="matrix(0.25263155,0,0,0.25263155,15.160225,27.678997)"
   id="path3129-8"
   style="fill:#00ff00;fill-opacity:1;stroke:#ffffff;stroke-width:0;stroke-linecap:round;stroke-linejoin:miter;stroke-miterlimit:4;stroke-opacity:1;stroke-dasharray:none" /><path filter="url(#f1)"
   d="m 29.107781,38.043776 a 2.1790231,2.1790231 0 1 1 -4.358045,0 2.1790231,2.1790231 0 1 1 4.358045,0 z"
   id="path3909"
   style="fill:#42a300;fill-opacity:1;stroke:#ffffff;stroke-width:0;stroke-linecap:round;stroke-linejoin:miter;stroke-miterlimit:4;stroke-opacity:1;stroke-dasharray:none" /><path filter="url(#f1)"
   d="m 4.1553458,13.439424 a 2.9391474,2.9391474 0 1 1 -5.8782942,0 2.9391474,2.9391474 0 1 1 5.8782942,0 z"
   id="path3911-9-2"
   style="fill:#079c21;fill-opacity:1;stroke:#ffffff;stroke-width:0;stroke-linecap:round;stroke-linejoin:miter;stroke-miterlimit:4;stroke-opacity:1;stroke-dasharray:none" /><path filter="url(#f1)"
   d="m 31.02835,38.668846 a 1.3349377,1.3349377 0 0 1 -2.669875,0 1.3349377,1.3349377 0 1 1 2.669875,0 z"
   id="path3129-2"
   style="fill:#20df20;fill-opacity:1;stroke:#ffffff;stroke-width:0;stroke-linecap:round;stroke-linejoin:miter;stroke-miterlimit:4;stroke-opacity:1;stroke-dasharray:none" /><path filter="url(#f1)"
   d="m 34.053571,30.797258 a 9.6282415,9.6282415 0 1 1 -19.256483,0 9.6282415,9.6282415 0 1 1 19.256483,0 z"
   transform="matrix(0.16842105,0,0,0.16842105,3.7172019,20.414508)"
   id="path3129-6"
   style="fill:#1cc047;fill-opacity:1;stroke:#ffffff;stroke-width:0;stroke-linecap:round;stroke-linejoin:miter;stroke-miterlimit:4;stroke-opacity:1;stroke-dasharray:none" /><path filter="url(#f1)"
   d="m 32.368366,38.955926 a 0.980213,0.980213 0 0 1 -1.960426,0 0.980213,0.980213 0 1 1 1.960426,0 z"
   id="path3129-2-7"
   style="fill:#86df20;fill-opacity:1;stroke:#ffffff;stroke-width:0;stroke-linecap:round;stroke-linejoin:miter;stroke-miterlimit:4;stroke-opacity:1;stroke-dasharray:none" /><path filter="url(#f1)"
   d="m 34.053571,30.797258 a 9.6282415,9.6282415 0 1 1 -19.256483,0 9.6282415,9.6282415 0 1 1 19.256483,0 z"
   transform="matrix(0.10180602,0,0,0.10180602,-2.3852962,0.50013545)"
   id="path3129-2-7-6"
   style="fill:#86df20;fill-opacity:1;stroke:#ffffff;stroke-width:0;stroke-linecap:round;stroke-linejoin:miter;stroke-miterlimit:4;stroke-opacity:1;stroke-dasharray:none" /><path filter="url(#f1)"
   d="m 30.607674,21.473066 a 4.3580461,4.3580461 0 1 1 -8.716092,0 4.3580461,4.3580461 0 1 1 8.716092,0 z"
   transform="matrix(0.6976744,0,0,0.69767443,-6.8611547,23.737823)"
   id="path3901-1"
   style="fill:#1ea553;fill-opacity:1;stroke:#ffffff;stroke-width:0;stroke-linecap:round;stroke-linejoin:miter;stroke-miterlimit:4;stroke-opacity:1;stroke-dasharray:none" /><path filter="url(#f1)"
   d="m 34.053571,30.797258 a 9.6282415,9.6282415 0 1 1 -19.256483,0 9.6282415,9.6282415 0 1 1 19.256483,0 z"
   transform="matrix(0.16842105,0,0,0.16842105,3.1834522,33.403371)"
   id="path3129-6-1"
   style="fill:#18a33c;fill-opacity:1;stroke:#ffffff;stroke-width:0;stroke-linecap:round;stroke-linejoin:miter;stroke-miterlimit:4;stroke-opacity:1;stroke-dasharray:none" /><path filter="url(#f1)"
   d="m 34.053571,30.797258 a 9.6282415,9.6282415 0 1 1 -19.256483,0 9.6282415,9.6282415 0 1 1 19.256483,0 z"
   transform="matrix(0.16842105,0,0,0.16842105,-3.7083415,12.221239)"
   id="path3129-6-9"
   style="fill:#1dc71f;fill-opacity:1;stroke:#ffffff;stroke-width:0;stroke-linecap:round;stroke-linejoin:miter;stroke-miterlimit:4;stroke-opacity:1;stroke-dasharray:none" /><path filter="url(#f1)"
   d="m 0.77751161,2.5206322 a 0.77751317,0.77751317 0 0 1 -1.55502634,0 0.77751317,0.77751317 0 1 1 1.55502634,0 z"
   id="path3129-2-7-6-0"
   style="fill:#88f807;fill-opacity:1;stroke:#ffffff;stroke-width:0;stroke-linecap:round;stroke-linejoin:miter;stroke-miterlimit:4;stroke-opacity:1;stroke-dasharray:none" /></svg>