<?xml version="1.0" encoding="UTF-8"?>
<svg version="1.1" viewBox="0 0 800 600" xmlns="http://www.w3.org/2000/svg" xmlns:cc="http://creativecommons.org/ns#" xmlns:dc="http://purl.org/dc/elements/1.1/" xmlns:rdf="http://www.w3.org/1999/02/22-rdf-syntax-ns#" xmlns:xlink="http://www.w3.org/1999/xlink">
<metadata>
<rdf:RDF>
<cc:Work rdf:about="">
<dc:format>image/svg+xml</dc:format>
<dc:type rdf:resource="http://purl.org/dc/dcmitype/StillImage"/>
<dc:title/>
</cc:Work>
</rdf:RDF>
</metadata>
<g transform="matrix(1.2397 -1.6368 1.6368 1.2397 -213.41 -139.09)" fill="#2a2a2a" fill-opacity=".13298" stroke="#252525" stroke-linecap="round" stroke-width=".2">
<path transform="matrix(.68241 .35935 -.32817 .74724 92.153 112.24)" d="m-12.857 339.86a18.929 9.6429 0 1 1-37.857 0 18.929 9.6429 0 1 1 37.857 0z"/>
<path transform="matrix(1.5805 .71449 -.93887 .8558 373.61 106.72)" d="m39.528 337c0 0.6657-18.037-4.0037-33.361-0.10806-9.8863 2.5133-13.621 4.1855-20.03 7.1591-1.5837 0.73479-2.8263 1.7608-4.539 2.6333-3.4254 1.745-8.1575 2.8243-13.385 2.8243-10.454 0-18.929-4.3172-18.929-9.6429 0-5.3256 8.4746-9.6428 18.929-9.6428 5.227 0 8.8675 0.33237 13.431 1.9511 4.4265 1.5702 17.374-2.4272 26.612-1.7138 10.113 0.78086 31.271 5.2084 31.271 6.5398z"/>
<path transform="translate(1.7857)" d="m-4.5457 346.52a6.8185 6.8185 0 1 1-13.637 0 6.8185 6.8185 0 1 1 13.637 0z"/>
<path transform="translate(47.079 23.344)" d="m-4.5457 346.52a6.8185 6.8185 0 1 1-13.637 0 6.8185 6.8185 0 1 1 13.637 0z"/>
<path transform="translate(23.15 51.916)" d="m-4.5457 346.52a6.8185 6.8185 0 1 1-13.637 0 6.8185 6.8185 0 1 1 13.637 0z"/>
<path transform="translate(-6.4929 37.273)" d="m-4.5457 346.52a6.8185 6.8185 0 1 1-13.637 0 6.8185 6.8185 0 1 1 13.637 0z"/>
</g>
<g transform="matrix(1.5932 0 0 1.5932 53.201 -149.27)">
<path transform="translate(35.982 -5.625)" d="m229.29 284.86a15.714 15.714 0 1 1-31.429 0 15.714 15.714 0 1 1 31.429 0z" fill="none" stroke="#000" stroke-dasharray="1.20000005, 0.60000002" stroke-opacity=".39894" stroke-width=".6"/>
<path transform="matrix(.81278 0 0 .81278 75.968 47.708)" d="m229.29 284.86a15.714 15.714 0 1 1-31.429 0 15.714 15.714 0 1 1 31.429 0z" fill="none" stroke="#000" stroke-opacity=".53191"/>
<path transform="matrix(.62555 0 0 .62555 115.95 101.04)" d="m229.29 284.86a15.714 15.714 0 1 1-31.429 0 15.714 15.714 0 1 1 31.429 0z" fill-opacity=".55851"/>
</g>
<path d="m607.99 593.87c19.465 0.17492 63.216-21.494 68.992-40.118 5.7764-18.624 8.7273-28.602 9.691-42.954 0.23155-12.654 3.4696-24.297 2.2875-36.82-1.3819-11.03-3.8174-31.791-1.2799-47.124-2.3002-13.22-9.7067-25.543-14.396-38.404-6.3617-15.011-15.862-20.067-30.781-25.356-16.555-3.5679-26.439 11.347-17.676 17.069 4.5865 5.9691 4.3417 5.4818 2.1558 2.6486-9.9516-12.051-15.897-18.499-31.406-23.306-6.4302-0.56348-12.312-1.326-21.528 2.6035-8.9758 6.8909-5.8083 7.5154 5.4616 20.804-11.894-10.969-11.993-21.513-28.447-27.127-11.644-3.226-31.49-4.7392-37.915 8.8831-2.8156 7.7515 9.2765 19.062 15.396 29.953-9.2548-12.301-16.468-25.86-24.438-39.747-12.121-13.951-17.135-27.266-24.187-41.451-11.696-25.053-20.376-36.141-37.054-21.808-5.6156 4.4439 1.0922 27.268 4.4896 40.957 5.472 14.914 13.306 30.022 16.868 45.674 6.442 14.507 10.822 24.688 18.672 38.267 3.4749 7.8192 15.97 20.283 18.89 33.374 2.6232 7.6162-2.8968-11.389-8.606-17.375-2.2873-3.7044-7.8368-11.587-8.1532-12.102-0.91536-1.8068-2.7272 2.7628-1.1817 9.3144 2.8659 16.139 12.063 31.009 10.197 47.851-2.9607 23.754 1.0201 24.633 20.793 46.243 13.222 13.19 13.177 34.218 25.379 47.768 14.124 15.684 45.206 22.413 67.797 22.234" fill="none" stroke="#000" stroke-width=".62455px"/>
<text transform="rotate(8.6309 452 663.38)" fill="#000000" font-family="sans-serif" font-size="43.33px" letter-spacing="0px" word-spacing="0px" style="font-variant-caps:normal;font-variant-east-asian:normal;font-variant-ligatures:normal;font-variant-numeric:normal;line-height:0%" xml:space="preserve"><textPath font-family="sans-serif" font-size="43.33px" style="font-variant-caps:normal;font-variant-east-asian:normal;font-variant-ligatures:normal;font-variant-numeric:normal" xlink:href="#c">Instructions:</textPath></text>
<text transform="rotate(8.6309 452 663.38)" fill="#000000" font-family="sans-serif" font-size="42.26px" letter-spacing="0px" word-spacing="0px" style="font-variant-caps:normal;font-variant-east-asian:normal;font-variant-ligatures:normal;font-variant-numeric:normal;line-height:0%" xml:space="preserve"><textPath font-family="sans-serif" font-size="42.26px" style="font-variant-caps:normal;font-variant-east-asian:normal;font-variant-ligatures:normal;font-variant-numeric:normal" xlink:href="#a">  * Hit on the body: 1 point</textPath></text>
<text transform="rotate(8.6309 452 663.38)" fill="#000000" font-family="sans-serif" font-size="43.581px" letter-spacing="0px" word-spacing="0px" style="font-variant-caps:normal;font-variant-east-asian:normal;font-variant-ligatures:normal;font-variant-numeric:normal;line-height:0%" xml:space="preserve"><textPath font-family="sans-serif" font-size="43.581px" style="font-variant-caps:normal;font-variant-east-asian:normal;font-variant-ligatures:normal;font-variant-numeric:normal" xlink:href="#b">  * Hit on the tail: 0.5 points</textPath></text>
<path d="m192.81 299.24c47.07-51.767 105.09-93.527 169.13-121.72 68.647-30.225 144.13-44.793 219.1-42.282" fill="none" stroke-opacity="0"/>
<path d="m126.8 275.84c54.816-60.286 122.39-108.92 196.96-141.75 79.943-35.199 167.85-52.164 255.15-49.24" fill="none" stroke-opacity="0"/>
<path d="m77.959 257.56c62.096-68.293 138.64-123.38 223.12-160.58 90.562-39.875 190.15-59.093 289.04-55.78" fill="none" stroke-opacity="0"/>
<path id="c" d="m32.333 423.33c33.341-138.39 123.79-262.09 245.55-335.83 121.19-73.398 271.88-96.4 409.45-62.5" fill="none"/>
<path id="b" d="m107.31 438.01c29.361-121.87 109.01-230.81 216.24-295.75 106.73-64.637 239.43-84.893 360.58-55.039" fill="none"/>
<path id="a" d="m173.51 455.33c25.442-105.6 94.462-200 187.37-256.27 92.48-56.009 207.47-73.561 312.45-47.693" fill="none"/>
</svg>
