<?xml version="1.0" encoding="UTF-8"?>
<svg version="1.1" viewBox="0 0 800 600" xmlns="http://www.w3.org/2000/svg" xmlns:cc="http://creativecommons.org/ns#" xmlns:dc="http://purl.org/dc/elements/1.1/" xmlns:rdf="http://www.w3.org/1999/02/22-rdf-syntax-ns#">
<metadata>
<rdf:RDF>
<cc:Work rdf:about="">
<dc:format>image/svg+xml</dc:format>
<dc:type rdf:resource="http://purl.org/dc/dcmitype/StillImage"/>
<dc:title/>
</cc:Work>
</rdf:RDF>
</metadata>
<g transform="matrix(1.2397 -1.6368 1.6368 1.2397 -213.41 -139.09)" fill="#2a2a2a" fill-opacity=".13298" stroke="#252525" stroke-linecap="round" stroke-width=".2">
<path transform="matrix(.68241 .35935 -.32817 .74724 92.153 112.24)" d="m-12.857 339.86a18.929 9.6429 0 1 1-37.857 0 18.929 9.6429 0 1 1 37.857 0z"/>
<path transform="matrix(1.5805 .71449 -.93887 .8558 373.61 106.72)" d="m39.528 337c0 0.6657-18.037-4.0037-33.361-0.10806-9.8863 2.5133-13.621 4.1855-20.03 7.1591-1.5837 0.73479-2.8263 1.7608-4.539 2.6333-3.4254 1.745-8.1575 2.8243-13.385 2.8243-10.454 0-18.929-4.3172-18.929-9.6429 0-5.3256 8.4746-9.6428 18.929-9.6428 5.227 0 8.8675 0.33237 13.431 1.9511 4.4265 1.5702 17.374-2.4272 26.612-1.7138 10.113 0.78086 31.271 5.2084 31.271 6.5398z"/>
<path transform="translate(1.7857)" d="m-4.5457 346.52a6.8185 6.8185 0 1 1-13.637 0 6.8185 6.8185 0 1 1 13.637 0z"/>
<path transform="translate(47.079 23.344)" d="m-4.5457 346.52a6.8185 6.8185 0 1 1-13.637 0 6.8185 6.8185 0 1 1 13.637 0z"/>
<path transform="translate(23.15 51.916)" d="m-4.5457 346.52a6.8185 6.8185 0 1 1-13.637 0 6.8185 6.8185 0 1 1 13.637 0z"/>
<path transform="translate(-6.4929 37.273)" d="m-4.5457 346.52a6.8185 6.8185 0 1 1-13.637 0 6.8185 6.8185 0 1 1 13.637 0z"/>
</g>
<g transform="matrix(1.5932 0 0 1.5932 53.201 -149.27)">
<path transform="translate(35.982 -5.625)" d="m229.29 284.86a15.714 15.714 0 1 1-31.429 0 15.714 15.714 0 1 1 31.429 0z" fill="none" stroke="#000" stroke-dasharray="1.20000005, 0.60000002" stroke-opacity=".39894" stroke-width=".6"/>
<path transform="matrix(.81278 0 0 .81278 75.968 47.708)" d="m229.29 284.86a15.714 15.714 0 1 1-31.429 0 15.714 15.714 0 1 1 31.429 0z" fill="none" stroke="#000" stroke-opacity=".53191"/>
<path transform="matrix(.62555 0 0 .62555 115.95 101.04)" d="m229.29 284.86a15.714 15.714 0 1 1-31.429 0 15.714 15.714 0 1 1 31.429 0z" fill-opacity=".55851"/>
</g>
<path d="m607.99 593.87c19.465 0.17492 63.216-21.494 68.992-40.118 5.7764-18.624 8.7273-28.602 9.691-42.954 0.23155-12.654 3.4696-24.297 2.2875-36.82-1.3819-11.03-3.8174-31.791-1.2799-47.124-2.3002-13.22-9.7067-25.543-14.396-38.404-6.3617-15.011-15.862-20.067-30.781-25.356-16.555-3.5679-26.439 11.347-17.676 17.069 4.5865 5.9691 4.3417 5.4818 2.1558 2.6486-9.9516-12.051-15.897-18.499-31.406-23.306-6.4302-0.56348-12.312-1.326-21.528 2.6035-8.9758 6.8909-5.8083 7.5154 5.4616 20.804-11.894-10.969-11.993-21.513-28.447-27.127-11.644-3.226-31.49-4.7392-37.915 8.8831-2.8156 7.7515 9.2765 19.062 15.396 29.953-9.2548-12.301-16.468-25.86-24.438-39.747-12.121-13.951-17.135-27.266-24.187-41.451-11.696-25.053-20.376-36.141-37.054-21.808-5.6156 4.4439 1.0922 27.268 4.4896 40.957 5.472 14.914 13.306 30.022 16.868 45.674 6.442 14.507 10.822 24.688 18.672 38.267 3.4749 7.8192 15.97 20.283 18.89 33.374 2.6232 7.6162-2.8968-11.389-8.606-17.375-2.2873-3.7044-7.8368-11.587-8.1532-12.102-0.91536-1.8068-2.7272 2.7628-1.1817 9.3144 2.8659 16.139 12.063 31.009 10.197 47.851-2.9607 23.754 1.0201 24.633 20.793 46.243 13.222 13.19 13.177 34.218 25.379 47.768 14.124 15.684 45.206 22.413 67.797 22.234" fill="none" stroke="#000" stroke-width=".62455px"/>
<g transform="rotate(8.6309 452 663.38)"  aria-label="Instructions:">
<path d="m36.111 408.47-3.1266 12.041-3.1127-0.80824 1.0369-3.9932-24.267-6.301-1.0369 3.9932-3.1127-0.80823 3.1266-12.041 3.1127 0.80824-1.0369 3.9932 24.267 6.301 1.0369-3.9932z" />
<path d="m43.692 383-1.1671 3.8025-12.864-3.9482q-1.5574-0.47801-2.9684-0.71191-1.4312-0.24011-2.3488 9e-3 -1.0047 0.24492-1.701 1.0714-0.71652 0.82026-1.1821 2.3372-0.47801 1.5574-0.23089 3.4923 0.24712 1.9349 0.96245 3.8586l16.869 5.1774-1.1671 3.8025-22.592-6.9342 1.1671-3.8025 2.508 0.76978q-0.9302-2.2331-1.1759-4.3888-0.24572-2.1558 0.36886-4.1582 1.1236-3.6609 3.918-4.9057t6.9407 0.0278z" />
<path d="m45.473 357.56q3.0462 1.0951 4.0883 4.3251 1.0493 3.2101-0.51828 7.5703-0.88756 2.4688-2.2094 4.3318-1.3345 1.836-2.5324 2.9791l-4.2009-1.5103 0.07158-0.19909q1.971-1.2924 3.5476-3.1762 1.5567-1.891 2.2725-3.882 0.88756-2.4688 0.59222-4.1488-0.29534-1.68-2.0076-2.2956-1.314-0.47241-2.263 0.0408-0.94892 0.5132-2.1998 2.4917-0.4655 0.73197-1.1697 1.9402-0.69701 1.1883-1.3551 2.1433-1.8287 2.6476-3.7657 3.3451-1.9498 0.6705-4.1398-0.11685-1.3738-0.49389-2.3878-1.488-1.0069-1.014-1.5474-2.5123-0.53492-1.4514-0.45692-3.3568 0.06525-1.9326 0.83114-4.0629 0.71578-1.991 1.9436-3.8428 1.2151-1.8789 2.3987-2.9822l4.0019 1.4387-0.07158 0.1991q-1.5706 1.0541-3.0246 2.8472-1.4739 1.7859-2.1825 3.7569-0.73725 2.0507-0.44906 3.7506 0.26828 1.6927 1.8212 2.251 1.3738 0.49388 2.3784-0.11171 0.99747-0.58569 2.1083-2.2997 0.61112-0.94941 1.3081-2.1377 0.70417-1.2082 1.2111-1.9928 1.535-2.3934 3.4966-3.2845 1.9815-0.88391 4.4105-0.0107z" />
<path d="m58.376 343.11q-0.14342 1.1509-0.46392 2.4586-0.3126 1.2881-0.69929 2.25-1.3495 3.3568-3.8578 4.3779t-6.4933-0.5809l-11.66-4.6876-1.0022 2.4931-3.1016-1.2469 1.0022-2.4931-6.3014-2.5332 1.4836-3.6905 6.3014 2.5332 3.0619-7.6166 3.1016 1.2469-3.0619 7.6166 9.9919 4.0168q1.7275 0.69446 2.7406 1.0105 0.99346 0.30817 2.027 0.17637 0.95883-0.11621 1.6317-0.71222 0.66112-0.62354 1.2845-2.1744 0.36301-0.903 0.50239-1.9871 0.11975-1.092 0.11669-1.5949l0.07892-0.1963z" />
<path d="m48.766 317.5-0.08535 0.1936q-0.55206 0.72774-0.97089 1.468-0.42966 0.71234-0.89054 1.7578-0.74253 1.6843-0.67884 3.5852 0.04433 1.8924 0.58514 3.865l15.352 6.7682-1.6046 3.6396-21.624-9.5334 1.6046-3.6396 3.1943 1.4082q-0.78644-2.9364-0.77728-4.8977-0.0017-1.9892 0.75794-3.7122 0.41821-0.94861 0.66405-1.3489 0.22649-0.40884 0.73754-1.2009z" />
<path d="m76.652 304.31-1.7568 3.5686-2.3537-1.1588q0.53588 2.5041 0.48215 4.5293-0.05373 2.0252-1.0349 4.0183-1.6447 3.3408-4.5915 4.2011-2.9658 0.85097-6.914-1.0927l-13.762-6.775 1.7568-3.5686 12.072 5.9433q1.6134 0.79431 2.8461 1.2125 1.2137 0.40883 2.2728 0.31713 1.0875-0.10134 1.869-0.73065 0.78146-0.62932 1.5477-2.1858 0.68217-1.3857 0.76451-3.3732 0.09169-2.0065-0.32737-3.9815l-15.831-7.7935 1.7568-3.5686z" />
<path d="m87.449 281.36q-0.12482 2.2014-0.52854 4.032-0.39352 1.812-1.3626 3.5729-1.2344 2.2428-2.9134 3.7578-1.6976 1.5048-3.7666 2.1049-2.0792 0.61861-4.5262 0.23789-2.447-0.38071-5.1717-1.8803-5.0787-2.7951-6.4401-7.1669-1.3512-4.3903 1.1686-8.9685 0.97932-1.7794 2.4183-3.2092 1.4492-1.4484 2.9576-2.4778l3.8739 2.1321-0.10201 0.18536q-2.1192 0.91057-3.725 2.2486-1.5956 1.3195-2.4831 2.9321-1.6322 2.9657-0.57908 5.7912 1.0448 2.7968 4.9002 4.9186 3.7442 2.0606 6.6827 1.5044 2.9301-0.585 4.6031-3.6248 0.58147-1.0565 0.90531-2.3031 0.32384-1.2466 0.35844-2.3626 0.029-0.97419-0.03007-1.8761-0.07761-0.91211-0.17849-1.4748l0.10201-0.18535z" />
<path d="m97.49 267.06q-0.32147 1.1144-0.84234 2.356-0.51001 1.2235-1.0422 2.1131-1.8573 3.1048-4.4944 3.7214t-6.3228-1.5882l-10.785-6.4518-1.3794 2.3059-2.8687-1.7161 1.3794-2.3059-5.8282-3.4866 2.042-3.4134 5.8282 3.4866 4.2143-7.0447 2.8687 1.7161-4.2143 7.0447 9.2416 5.5285q1.5978 0.95582 2.549 1.4263 0.93311 0.45959 1.9745 0.49088 0.96521 0.035 1.7229-0.44855 0.75042-0.5126 1.6085-1.947 0.49963-0.8352 0.80668-1.8842 0.28889-1.0599 0.36443-1.5571l0.10862-0.18156z" />
<path d="m79.246 244.73-2.4027 3.7875-3.4838-2.21 2.4027-3.7875zm23.161 14.993-2.1307 3.3587-19.956-12.66 2.1307-3.3588z" />
<path d="m108.26 229.8q4.7678 3.2603 5.8553 7.5922 1.0874 4.3319-1.719 8.4361-2.8304 4.1391-7.2617 4.6972-4.4194 0.54067-9.1872-2.7196-4.7678-3.2603-5.8672-7.5747-1.1049-4.3439 1.7254-8.483 2.8065-4.1042 7.2553-4.6504 4.4313-0.55814 9.1991 2.7021zm-2.3168 3.3881q-3.7898-2.5915-6.6387-2.361-2.8663 0.21859-4.6696 2.8557-1.8272 2.6721-0.99105 5.4224 0.83061 2.721 4.6204 5.3125 3.6676 2.5079 6.5863 2.3251 2.9013-0.19471 4.7165-2.8493 1.7914-2.6197 0.93776-5.382-0.85912-2.7917-4.5616-5.3235z" />
<path d="m133.55 215.72-2.4015 3.1708-10.727-8.1242q-1.2987-0.98359-2.5437-1.6876-1.2618-0.71683-2.2093-0.79745-1.0277-0.11485-1.9654 0.42237-0.95455 0.52445-1.9126 1.7894-0.98358 1.2987-1.4157 3.2008-0.43209 1.9022-0.42059 3.9545l14.066 10.653-2.4015 3.1708-18.839-14.268 2.4015-3.1708 2.0914 1.584q-0.10712-2.4167 0.40212-4.5258 0.50923-2.1091 1.7738-3.7789 2.3121-3.0527 5.364-3.2626 3.0519-0.20991 6.5094 2.4087z" />
<path d="m143.91 192.42q2.4897 2.0688 2.3673 5.4605-0.10896 3.3755-3.0701 6.9392-1.6766 2.0178-3.5548 3.3181-1.8809 1.2704-3.3969 1.9363l-3.4336-2.853 0.13521-0.16273q2.2937-0.54235 4.4184-1.7752 2.1085-1.2464 3.4606-2.8737 1.6766-2.0178 1.9722-3.6978 0.29559-1.68-1.1039-2.8428-1.074-0.89241-2.1411-0.73377-1.0671 0.15865-2.9179 1.5916-0.68731 0.52922-1.7615 1.4247-1.0606 0.8792-2.0051 1.5524-2.6223 1.8648-4.6811 1.8596-2.0615-0.035-3.8515-1.5223-1.1228-0.93297-1.7369-2.2134-0.60052-1.2967-0.59738-2.8896-8e-3 -1.5468 0.71584-3.3113 0.72072-1.7943 2.1675-3.5355 1.3521-1.6273 3.1381-2.9491 1.7832-1.3516 3.2722-1.9849l3.2708 2.7178-0.13522 0.16273q-1.836 0.45501-3.8145 1.6443-1.9948 1.1758-3.3334 2.7868-1.3927 1.6761-1.7018 3.3723-0.32538 1.6827 0.9439 2.7374 1.1228 0.93298 2.2738 0.70649 1.1374-0.21021 2.7664-1.4424 0.89838-0.68393 1.959-1.5631 1.0742-0.89548 1.8183-1.46 2.2595-1.7261 4.4074-1.8944 2.1642-0.15479 4.1495 1.4948z" />
<path d="m145.48 174.45-3.3779 3.7629-4.4871-4.028 3.3779-3.7628zm13.099 11.759-3.3779 3.7628-4.4871-4.028 3.3779-3.7629z" />
</g>
<g transform="rotate(8.6309 452 663.38)"  aria-label="  * Hit on the body: 1 point">
<path d="m172.03 398.39 1.6908 2.0093-6.6588 5.5476 7.0342 2.3911-0.89858 2.5056-6.9576-2.6048 1.642 8.5025-2.5893 0.49629-1.3667-8.8422-6.6746 5.9584-1.6838-2.0288 6.6588-5.5476-7.0148-2.3842 0.89858-2.5056 6.9242 2.6367-1.5892-8.5274 2.5824-0.47686 1.3348 8.8089z" />
<path d="m208.13 362.75-1.7837 3.6757-13.533-6.5673-6.6934 13.793 13.533 6.5673-1.7837 3.6757-27.642-13.414 1.7837-3.6757 10.842 5.261 6.6934-13.793-10.842-5.261 1.7837-3.6757z" />
<path d="m190.45 339.17-2.1115 3.8312-3.524-1.9422 2.1115-3.8312zm23.446 13.205-1.8725 3.3975-20.186-11.125 1.8725-3.3975z" />
<path d="m223.63 335.31q-0.31158 1.0874-0.81741 2.2992-0.49527 1.1941-1.0128 2.0627-1.806 3.0313-4.3769 3.6374t-6.1694-1.5379l-10.53-6.2735-1.3413 2.2513-2.8008-1.6687 1.3413-2.2513-5.6904-3.3902 1.9856-3.3327 5.6904 3.3902 4.0978-6.878 2.8009 1.6687-4.0979 6.8781 9.023 5.3758q1.56 0.92941 2.4886 1.3866 0.91087 0.44661 1.9266 0.47531 0.94143 0.0325 1.6796-0.44049 0.73098-0.50125 1.5653-1.9017 0.48583-0.81543 0.78345-1.8391 0.2799-1.0342 0.35271-1.5193l0.10561-0.17726z" />
<path d="m236.56 296.35q4.5765 3.2847 5.5406 7.5327 0.96417 4.248-1.8634 8.1874-2.8516 3.973-7.1847 4.4188-4.3211 0.42909-8.8976-2.8556-4.5765-3.2847-5.5527-7.516-0.98094-4.26 1.8706-8.233 2.8275-3.9394 7.1774-4.3733 4.3331-0.44586 8.9096 2.8389zm-2.3342 3.2521q-3.6377-2.6109-6.4206-2.4494-2.7997 0.14952-4.6165 2.6808-1.8409 2.5648-1.0867 5.2652 0.74949 2.6715 4.3872 5.2824 3.5204 2.5267 6.3703 2.4133 2.8332-0.12546 4.6621-2.6735 1.8048-2.5146 1.0338-5.2269-0.77572-2.7411-4.3296-5.2919z" />
<path d="m261.78 283.39-2.4527 3.0056-10.168-8.2974q-1.231-1.0046-2.4195-1.7348-1.2045-0.74326-2.1252-0.85533-0.99761-0.14827-1.9305 0.34219-0.94891 0.47741-1.9274 1.6764-1.0046 1.231-1.493 3.0697-0.48838 1.8387-0.54972 3.8394l13.333 10.881-2.4527 3.0056-17.857-14.573 2.4527-3.0056 1.9824 1.6177q-0.019-2.3592 0.55192-4.3969 0.57088-2.0377 1.8625-3.6204 2.3614-2.8936 5.3434-2.9904 2.982-0.0967 6.2593 2.5778z" />
<path d="m285 258.14q-0.5552 0.98553-1.3282 2.0471-0.75862 1.0468-1.4634 1.7717-2.4596 2.53-5.1009 2.5235-2.6413-7e-3 -5.6448-2.9264l-8.7884-8.5439-1.8267 1.879-2.3377-2.2726 1.8267-1.879-4.7493-4.6172 2.7041-2.7815 4.7493 4.6171 5.5808-5.7406 2.3377 2.2726-5.5808 5.7406 7.5308 7.3213q1.302 1.2658 2.0993 1.9258 0.7825 0.64562 1.7639 0.90903 0.90825 0.24985 1.7359-0.0391 0.82728-0.31811 1.9636-1.4869 0.66165-0.68058 1.1885-1.6073 0.51205-0.94114 0.69533-1.3961l0.14384-0.14795z" />
<path d="m302.6 241.87-2.8452 2.637-8.9209-9.6254q-1.08-1.1653-2.156-2.0531-1.09-0.90288-1.9862-1.1414-0.96747-0.28497-1.9593 0.0716-1.0059 0.34143-2.1409 1.3934-1.1653 1.08-1.9036 2.8334-0.73827 1.7533-1.076 3.7263l11.698 12.622-2.8452 2.637-21.825-23.549 2.8452-2.637 7.897 8.5206q0.30787-2.3391 1.1554-4.2781 0.84753-1.939 2.3458-3.3276 2.7393-2.5388 5.7059-2.2217t5.8421 3.4196z" />
<path d="m316.17 216.17-13.158 10.737q1.3437 1.6467 2.8439 2.4733 1.4871 0.81061 2.9897 0.88951 1.4575 0.089 2.9057-0.45357 1.4642-0.55561 2.8391-1.6776 1.8226-1.4872 3.074-3.707 1.2544-2.2487 1.4638-3.5914l0.15987-0.13046 2.6744 3.2774q-0.99696 1.8789-2.2275 3.6021t-2.9731 3.1452q-4.4445 3.6268-8.8954 3.2638-4.464-0.37891-8.0777-4.8074-3.5746-4.3805-3.2929-8.8983 0.2977-4.5308 4.1986-7.714 3.6131-2.9484 7.2856-2.4297 3.6885 0.50567 6.8587 4.3906zm-4.8043 0.0852q-1.9468-2.3531-4.1866-2.6826-2.2238-0.34262-4.6219 1.6143-2.4141 1.9699-2.6918 4.5669-0.26178 2.584 1.2684 4.8508z" />
<path d="m350.42 191.59q1.5924 2.4104 2.1776 4.7936 0.60243 2.3719 0.31332 4.4424-0.32385 2.1677-1.3323 3.8232-1.0198 1.6382-2.776 2.7984-1.6356 1.0805-3.1196 1.4921-1.4726 0.42878-3.0928 0.55934l0.38485 1.0318-3.0302 2.0018-17.698-26.789 3.2368-2.1383 6.324 9.5726q0.62083-2.0176 1.6868-3.7358 1.0546-1.7354 2.9657-2.9979 3.409-2.2521 7.1005-0.93173 3.7088 1.309 6.8594 6.078zm-3.2832 2.2926q-2.2748-3.4434-4.5826-4.466-2.3192-1.0399-4.8501 0.63211-1.4118 0.93267-2.4485 2.5079-1.0481 1.558-1.6508 3.3411l7.2794 11.019q1.7868-0.29011 2.9274-0.6974 1.1578-0.41865 2.4146-1.249 2.6858-1.7744 3.0408-4.5314 0.36078-2.7856-2.1301-6.5561z" />
<path d="m373.42 178.5q2.7902 4.8937 1.8955 9.1568-0.89473 4.2631-5.1072 6.665-4.2484 2.4223-8.3728 1.0209-4.1065-1.4116-6.8968-6.3053t-1.9134-9.1466q0.88451-4.2811 5.1329-6.7034 4.2125-2.4018 8.3472-0.98256 4.1244 1.4014 6.9147 6.2951zm-3.4776 1.9828q-2.2179-3.8899-4.8147-4.9033-2.6071-1.0314-5.3138 0.51195-2.7426 1.5638-3.1829 4.3326-0.43259 2.7407 1.7853 6.6306 2.1463 3.7644 4.784 4.8495 2.6275 1.0672 5.3522-0.48632 2.6888-1.5331 3.1189-4.3199 0.43778-2.8149-1.729-6.6152z" />
<path d="m401.26 177.55-3.4876 1.6988-1.0572-2.1704q-0.87008 2.0305-2.1502 3.5492-1.2801 1.5187-3.1908 2.4494-3.7102 1.8072-7.2908 0.0167-3.562-1.7996-6.0289-6.864-1.2832-2.6342-1.5441-5.0548-0.24243-2.4296 0.33275-4.5001 0.57471-2.0243 1.8828-3.5796 1.3267-1.5643 3.1261-2.4408 1.6325-0.79519 3.0656-1.0572 1.4241-0.28055 3.1678-0.23478l-4.3735-8.9786 3.4876-1.6988zm-5.9725-3.4027-5.7922-11.891q-1.7171 0.056-2.9476 0.35704-1.2305 0.30101-2.5476 0.94258-2.931 1.4277-3.5695 4.2635-0.6385 2.8358 1.1868 6.5831 1.7982 3.6916 3.9994 5.0064 2.1922 1.2963 4.9748-0.0591 1.4841-0.7229 2.689-2.1132 1.1959-1.4088 2.007-3.0892z" />
<path d="m417.91 145.55-0.43972 34.296-3.8357 1.5778 0.31124-10.526-16.836-16.792 3.893-1.6014 13.045 13.108 0.10305-18.517z" />
<path d="m433.6 146.26-4.6547 1.6294-1.943-5.5506 4.6547-1.6294zm5.6724 16.204-4.6547 1.6294-1.943-5.5506 4.6547-1.6294z" />
<path d="m481.87 150.23-16.13 4.0535-0.76442-3.0419 6.2038-1.559-5.019-19.972-6.2039 1.559-0.68396-2.7217q1.2608-0.31684 2.6514-0.87906 1.3856-0.58223 2.0254-1.1686 0.79485-0.73165 1.1241-1.6229 0.3442-0.91627 0.0974-2.2372l3.1019-0.77951 6.7491 26.857 6.0838-1.5288z" />
<path d="m522.92 131.01q0.41402 2.7756-0.0379 5.2005-0.45499 2.4045-1.6666 4.2126-1.1217 1.7112-2.8337 2.8219-1.6946 1.0873-3.7355 1.3917-1.7756 0.26485-3.2824 0.0932-1.4865-0.17466-3.0981-0.76879l1.4247 9.5514-3.8369 0.57233-4.6547-31.205 3.8369-0.57232 0.35618 2.3878q1.3389-1.5141 3.109-2.6544 1.7875-1.1637 3.9509-1.4864 4.1226-0.61494 6.8742 2.1667 2.7689 2.7581 3.5939 8.2889zm-3.9441 0.69264q-0.61495-4.1226-2.3276-5.9534-1.7126-1.8308-4.6311-1.3955-1.6531 0.24658-3.2201 1.2105-1.567 0.96394-2.9241 2.3556l1.927 12.919q1.7423 0.49117 2.9452 0.58296 1.2233 0.0887 2.7131-0.13348 3.2042-0.47795 4.6775-2.9092 1.4733-2.4312 0.84008-6.6763z" />
<path d="m549.25 128.86q0.48725 5.6122-2.1088 9.1101-2.596 3.4979-7.427 3.9174-4.8721 0.423-8.0321-2.5752-3.1395-3-3.6267-8.6121-0.48725-5.6122 2.0882-9.1083 2.5942-3.5185 7.4663-3.9415 4.831-0.41943 7.9928 2.5993 3.16 2.9982 3.6473 8.6103zm-3.9881 0.34625q-0.3873-4.4609-2.3221-6.4678-1.9366-2.0274-5.0407-1.7579-3.1453 0.27307-4.7035 2.6039-1.5394 2.3084-1.1521 6.7694 0.37481 4.317 2.3167 6.4061 1.9401 2.0685 5.0648 1.7972 3.0836-0.26772 4.64-2.6191 1.5752-2.3737 1.1968-6.7318z" />
<path d="m559.28 113.07-4.3706 0.1855-0.17062-4.0201 4.3706-0.1855zm0.8936 26.894-3.8758 0.1645-0.97737-23.028 3.8758-0.1645z" />
<path d="m587.12 139.71-3.8793-0.013 0.0439-13.124q5e-3 -1.5889-0.17576-2.972-0.18102-1.4038-0.67362-2.1895-0.51296-0.86838-1.4814-1.2843-0.96838-0.43657-2.516-0.44175-1.5889-5e-3 -3.3248 0.77299-1.7359 0.7783-3.3289 1.9904l-0.0576 17.209-3.8793-0.013 0.0772-23.049 3.8793 0.013-9e-3 2.5587q1.8209-1.5002 3.7634-2.3398 1.9425-0.83953 3.9853-0.83268 3.7349 0.0125 5.6876 2.2682t1.9386 6.4858z" />
<path d="m606.54 140.52q-1.108 0.22773-2.4163 0.341-1.2877 0.11441-2.2972 0.0583-3.5231-0.19586-5.2514-2.1933t-1.4958-6.1798l0.68035-12.238-2.6166-0.14547 0.18097-3.2552 2.6166 0.14546 0.36766-6.6135 3.8733 0.21533-0.36766 6.6135 7.9939 0.44441-0.18096 3.2552-7.9939-0.44441-0.58299 10.487q-0.1008 1.813-0.0756 2.8478 0.0263 1.0141 0.4715 1.9275 0.40745 0.84931 1.1686 1.2843 0.78289 0.41552 2.4105 0.506 0.94773 0.0527 1.9928-0.15788 1.0462-0.23117 1.5098-0.3914l0.20603 0.0114z" />
</g>
<g transform="rotate(8.6309 452 663.38)"  aria-label="  * Hit on the tail: 0.5 points">
<path d="m105.36 379.39 1.767 2.0523-6.8018 5.7984 7.2816 2.3836-0.89736 2.5943-7.2051-2.6048 1.7925 8.7486-2.6643 0.54201-1.5126-9.1021-6.8132 6.2222-1.76-2.0724 6.8017-5.7984-7.2615-2.3766 0.89736-2.5943 7.171 2.6381-1.7383-8.7749 2.6574-0.52189 1.4793 9.0681z" />
<path d="m141.81 342.05-1.7542 3.8309-14.105-6.4586-6.5826 14.375 14.105 6.4586-1.7542 3.8309-28.809-13.192 1.7542-3.8309 11.299 5.174 6.5826-14.375-11.299-5.174 1.7542-3.8309z" />
<path d="m122.91 318.25-2.0673 4.0098-3.6882-1.9015 2.0673-4.0098zm24.547 12.943-1.8332 3.5558-21.127-10.892 1.8332-3.5558z" />
<path d="m156.96 313.29q-0.28624 1.1308-0.76871 2.3962-0.47215 1.2468-0.97768 2.1587-1.7642 3.1826-4.3947 3.8898-2.6305 0.70726-6.4086-1.3871l-11.055-6.1283-1.3103 2.3637-2.9406-1.6301 1.3103-2.3637-5.9743-3.3118 1.9396-3.499 5.9743 3.3118 4.003-7.2213 2.9406 1.6301-4.003 7.2213 9.4733 5.2514q1.6378 0.90789 2.6097 1.3493 0.95324 0.43109 2.0011 0.42804 0.97143 3e-3 1.7171-0.50799 0.73737-0.54014 1.5524-2.0104 0.47458-0.85613 0.74848-1.9208 0.25529-1.075 0.31476-1.5773l0.10317-0.18612z" />
<path d="m168.76 272.68q4.8513 3.1959 6.0201 7.5334t-1.5823 8.5135q-2.7745 4.2116-7.2211 4.8498-4.4349 0.62043-9.2862-2.5755-4.8513-3.1959-6.0318-7.5156-1.1866-4.3492 1.5879-8.5608 2.7511-4.176 7.2155-4.8025 4.4466-0.6382 9.2979 2.5577zm-2.2711 3.4474q-3.8562-2.5403-6.7171-2.2591-2.8787 0.26958-4.6464 2.9529-1.7911 2.7189-0.90252 5.4702 0.88252 2.7219 4.7387 5.2622 3.7318 2.4584 6.6638 2.224 2.9143-0.24616 4.6937-2.9472 1.756-2.6656 0.84963-5.4286-0.91242-2.7926-4.6797-5.2744z" />
<path d="m194.09 258.18-2.3822 3.214-10.873-8.059q-1.3164-0.97569-2.5758-1.6708-1.2766-0.7078-2.2303-0.77901-1.0348-0.10481-1.9723 0.44527-0.95457 0.5374-1.9049 1.8196-0.9757 1.3164-1.3904 3.2339-0.41476 1.9176-0.38181 3.9815l14.258 10.568-2.3822 3.214-19.096-14.154 2.3822-3.214 2.1199 1.5712q-0.1329-2.4294 0.35728-4.556 0.49018-2.1265 1.7446-3.819 2.2935-3.0943 5.3607-3.3372 3.0672-0.24292 6.5719 2.3547z" />
<path d="m216.59 230.89q-0.51459 1.0469-1.2491 2.1846-0.72051 1.1217-1.4042 1.909-2.386 2.7474-5.106 2.8936t-5.9815-2.6863l-9.5435-8.2883-1.7721 2.0404-2.5385-2.2046 1.7721-2.0404-5.1573-4.479 2.6232-3.0205 5.1574 4.479 5.4139-6.2338 2.5385 2.2046-5.4139 6.2338 8.1778 7.1023q1.4138 1.2279 2.273 1.8613 0.84307 0.61945 1.8688 0.83385 0.94963 0.20468 1.7851-0.14074 0.83338-0.37543 1.9357-1.6447 0.64185-0.73906 1.1307-1.7238 0.47274-0.99867 0.63511-1.4777l0.13954-0.16066z" />
<path d="m233.68 213.04-2.7597 2.8964-9.7983-9.336q-1.1863-1.1303-2.3506-1.9752-1.1797-0.85953-2.1175-1.0476-1.014-0.23137-2.0121 0.19913-1.0134 0.41583-2.1144 1.5713-1.1303 1.1863-1.7779 3.0382-0.64762 1.8519-0.86895 3.9043l12.849 12.242-2.7597 2.8964-23.972-22.841 2.7597-2.8964 8.6737 8.2644q0.16712-2.4273 0.91531-4.4774 0.74819-2.05 2.2014-3.5752 2.6569-2.7885 5.7307-2.6521t6.2321 3.1457z" />
<path d="m245.82 185.64-12.767 11.989q1.5004 1.5978 3.103 2.3406 1.588 0.72734 3.1394 0.70082 1.5059-0.0129 2.9568-0.67487 1.4665-0.67654 2.8005-1.9293 1.7684-1.6606 2.8968-4.0339 1.1293-2.4034 1.2485-3.7997l0.15512-0.14567 2.9863 3.18q-0.89098 2.0044-2.0334 3.8653-1.1424 1.861-2.8332 3.4488-4.3124 4.0496-8.9174 3.9953-4.6195-0.0699-8.6546-4.3668-3.9914-4.2504-4.0254-8.9183-0.0185-4.6825 3.7665-8.2369 3.5058-3.2922 7.3211-3.0217 3.8309 0.25586 7.3707 4.0253zm-4.9364 0.43202q-2.1714-2.2812-4.4993-2.4598-2.3123-0.19309-4.6392 1.992-2.3423 2.1996-2.442 4.8913-0.0841 2.6771 1.6526 4.8995z" />
<path d="m279.47 172.26q-0.69302 0.93834-1.6186 1.9269-0.90897 0.97525-1.7221 1.628-2.8377 2.2779-5.5401 1.9368-2.7024-0.34112-5.4066-3.7098l-7.9127-9.8572-2.1075 1.6918-2.1047-2.6219 2.1075-1.6918-4.2761-5.3269 3.1198-2.5044 4.276 5.3268 6.4387-5.1686 2.1047 2.6219-6.4387 5.1686 6.7804 8.4466q1.1722 1.4603 1.9047 2.2368 0.71911 0.75985 1.6902 1.1537 0.89792 0.37072 1.7816 0.17982 0.88697-0.22082 2.1979-1.2732 0.76335-0.61277 1.4199-1.4946 0.64324-0.89837 0.88843-1.3408l0.16594-0.13321z" />
<path d="m298.34 158.58-3.2152 2.3447-1.4921-2.046q-0.21668 0.60576-0.56729 1.6779-0.34597 1.0424-0.80801 1.8534-0.5197 0.98476-1.3804 2.0075-0.84817 1.04-2.258 2.0681-2.5962 1.8933-5.6554 1.4905-3.0592-0.40278-5.0026-3.0678-1.5924-2.1836-1.642-4.2017-0.0449-2.0479 1.1274-4.088 1.1895-2.0526 3.4475-4.1208 2.258-2.0681 4.9774-4.262l-0.36362-0.49861q-0.80247-1.1004-1.7245-1.5341-0.90488-0.44627-1.9279-0.33229-0.97612 0.1061-2.0393 0.67071-1.0631 0.56462-2.1119 1.3295-1.2723 0.92785-2.5861 2.4127-1.3264 1.4677-2.5302 3.3201l-0.17194 0.12539-2.3949-3.2839q0.75755-0.94752 2.32-2.561 1.5624-1.6135 3.299-2.8799 2.0288-1.4796 3.7754-2.2266 1.7513-0.77673 3.441-0.77111 1.66 9.6e-4 3.1427 0.8423 1.4827 0.84135 2.8369 2.6982zm-6.6633-2.3835-3.8995-5.3471q-1.4159 1.1643-3.3022 2.8032-1.869 1.6264-2.8 2.8057-1.1043 1.4111-1.3496 2.8805-0.25782 1.4522 0.80796 2.9136 1.2037 1.6506 2.8153 1.7658 1.5991 0.098 3.6451-1.394 1.7022-1.2413 2.6355-2.9228 0.92085-1.6987 1.4473-3.5048z" />
<path d="m292.9 128.83-3.7513 2.5059-2.3049-3.4505 3.7513-2.5059zm15.201 23.216-3.3267 2.2222-13.203-19.765 3.3267-2.2222z" />
<path d="m318.16 145.58-3.3835 2.1346-17.667-28.004 3.3835-2.1346z" />
<path d="m323.33 121.83-4.3933 2.5622-3.0554-5.2389 4.3933-2.5622zm8.9195 15.294-4.3933 2.5622-3.0554-5.2389 4.3933-2.5622z" />
<path d="m367.7 101.15q3.6611 7.7079 2.9556 12.472-0.69539 4.7357-5.7699 7.146-5.1514 2.4468-9.2696-0.0731-4.099-2.5291-7.6962-10.102-3.6246-7.631-2.9475-12.405 0.668-4.7934 5.7617-7.2128 5.1514-2.4468 9.2778 0.13994 4.1364 2.5584 7.688 10.036zm-0.91027 11.128q-0.0668-1.8765-0.83128-4.0812-0.75442-2.2331-2.1604-5.1932-1.3878-2.9217-2.6602-4.9558-1.2532-2.0433-2.6574-3.2139-1.3758-1.1605-2.9044-1.3532-1.5094-0.20184-3.3354 0.66551-1.8068 0.85822-2.6425 2.1739-0.81645 1.3066-0.78716 3.1538 0.0221 1.7328 0.85868 4.1389 0.85581 2.3969 2.1523 5.1264 1.4243 2.9986 2.5944 4.9164 1.1701 1.9178 2.6199 3.1846 1.3464 1.198 2.8741 1.4383 1.5469 0.23116 3.469-0.68184 1.8068-0.85822 2.6425-2.1739t0.76793-3.1446z" />
<path d="m386.81 110.32-4.6901 1.9669-2.3455-5.5928 4.6901-1.9669z" />
<path d="m411.39 90.183q0.76161 2.0779 0.69807 4.2543-0.0636 2.1764-0.90622 3.9584-0.92595 1.9259-2.6457 3.4174-1.7071 1.4642-4.3244 2.4236-2.4376 0.89343-4.8857 1.2015-2.4408 0.32801-4.2629 0.17994l-1.5452-4.2158 0.27972-0.10252q2.0192 0.43846 4.4879 0.37218 2.4614-0.0863 4.5793-0.86252 1.4186-0.51994 2.5908-1.4029 1.1922-0.89025 1.865-2.2701 0.56423-1.1814 0.5644-2.5413 0.0202-1.3672-0.55837-2.9457-0.56388-1.5385-1.4915-2.3997-0.90761-0.86854-2.081-1.1637-1.3172-0.37844-2.9256-0.1289-1.5957 0.22223-3.4338 0.89596-1.7582 0.64444-3.3087 1.4847-1.5305 0.83293-2.6214 1.5048l-5.6168-15.325 17.902-6.5615 1.2816 3.4965-14.046 5.1482 2.9 7.9121q0.82985-0.39482 1.7143-0.76432 0.88446-0.3695 1.5438-0.61116 2.4176-0.8861 4.3895-1.1329 1.9646-0.2668 3.8639 0.2156 2.0012 0.51305 3.5174 1.9291 1.5162 1.416 2.4756 4.0334z" />
<path d="m453.21 75.75q0.75119 2.7949 0.57386 5.3325-0.18284 2.5171-1.2111 4.5122-0.9476 1.8853-2.5707 3.225-1.6081 1.3136-3.6631 1.8659-1.7879 0.48054-3.3519 0.48224-1.5435-0.0038-3.2646-0.42263l2.585 9.6176-3.8635 1.0384-8.4453-31.422 3.8635-1.0384 0.64624 2.4044q1.1933-1.7089 2.8725-3.0857 1.6942-1.4029 3.8726-1.9884 4.1512-1.1157 7.2979 1.4099 3.1618 2.4995 4.6586 8.0687zm-3.9592 1.1743q-1.1157-4.1512-3.086-5.8251t-4.909-0.88408q-1.6646 0.4474-3.1564 1.6196t-2.7183 2.7578l3.4963 13.008q1.8429 0.29794 3.0861 0.25027 1.2637-0.0532 2.7639-0.45641 3.2264-0.86717 4.4494-3.5316t0.0741-6.9389z" />
<path d="m479.83 70.314q1.1966 5.6848-1.0262 9.5886-2.2228 3.9037-7.1163 4.9338-4.9352 1.0388-8.543-1.6377-3.587-2.6809-4.7836-8.3657-1.1966-5.6848 1.0053-9.5842 2.2184-3.9246 7.1535-4.9634 4.8935-1.03 8.5057 1.6673 3.6078 2.6765 4.8044 8.3613zm-4.0398 0.85032q-0.95113-4.5187-3.1814-6.3326-2.2346-1.8347-5.379-1.1729-3.186 0.67062-4.4914 3.2505-1.2889 2.5546-0.33781 7.0733 0.92045 4.3729 3.1682 6.2701 2.2434 1.8764 5.4085 1.2101 3.1235-0.65747 4.4245-3.2581 1.3174-2.6259 0.38822-7.0405z" />
<path d="m487.99 52.873-4.4477 0.75479-0.69426-4.0911 4.4477-0.75479zm4.3909 27.4-3.9442 0.66934-3.9769-23.434 3.9442-0.66934z" />
<path d="m519.9 76.42-3.9681 0.50917-1.7225-13.424q-0.20854-1.6252-0.57996-3.015-0.37413-1.4109-0.98361-2.1479-0.64142-0.81878-1.6876-1.1136-1.0489-0.31595-2.6319-0.11283-1.6252 0.20854-3.2953 1.2381-1.67 1.0296-3.1355 2.4834l2.2587 17.603-3.9681 0.50916-3.0252-23.576 3.9681-0.50916 0.33584 2.6172q1.6597-1.7791 3.5327-2.8991 1.873-1.12 3.9626-1.3881 3.8203-0.49021 6.1207 1.5531t2.8556 6.3702z" />
<path d="m539.86 74.517q-1.0997 0.38901-2.4202 0.68936-1.2993 0.29861-2.3385 0.38375-3.6267 0.29712-5.6741-1.4994-2.0474-1.7966-2.4002-6.1019l-1.0321-12.598-2.6935 0.22067-0.27453-3.351 2.6935-0.22067-0.55776-6.808 3.9872-0.32666 0.55776 6.808 8.229-0.67418 0.27454 3.351-8.229 0.67418 0.88442 10.795q0.15291 1.8664 0.32462 2.9199 0.16998 1.0323 0.7537 1.9026 0.5361 0.81012 1.375 1.1471 0.85842 0.31399 2.5339 0.17672 0.9756-0.07993 2.0134-0.44252 1.0361-0.3838 1.4871-0.6129l0.21209-0.01738z" />
<path d="m561.39 66.901q0.13254 3.2531-2.4828 5.4468-2.5941 2.1928-7.2505 2.3826-2.6365 0.10742-4.8729-0.41908-2.216-0.54863-3.7347-1.2322l-0.1828-4.4863 0.21263-0.0087q1.9504 1.3475 4.3026 2.1035 2.3514 0.7348 4.4776 0.64816 2.6365-0.10742 4.0902-1.0186 1.4537-0.91113 1.3792-2.7397-0.0572-1.4033-0.8946-2.0933-0.83741-0.68999-3.1545-1.1067-0.85829-0.15671-2.2507-0.35554-1.3712-0.1997-2.5102-0.45146-3.1593-0.70187-4.5426-2.2428-1.3628-1.5631-1.4581-3.9019-0.0598-1.4671 0.48272-2.7883 0.56375-1.3221 1.7554-2.3929 1.15-1.0478 2.9551-1.6964 1.8256-0.67071 4.1006-0.76341 2.1262-0.08663 4.3166 0.35656 2.2108 0.42106 3.6869 1.1063l0.17413 4.2737-0.21262 0.0087q-1.5768-1.0645-3.798-1.7407-2.222-0.69747-4.327-0.6117-2.19 0.08923-3.665 1.0012-1.4758 0.89073-1.4082 2.5492 0.0598 1.4671 1.0044 2.174 0.92333 0.70779 2.941 1.0941 1.116 0.2101 2.4872 0.4098 1.3924 0.19884 2.3154 0.3742 2.8113 0.52438 4.3842 2.015 1.5737 1.5119 1.6794 4.1059z" />
</g>
<path d="m192.81 299.24c47.07-51.767 105.09-93.527 169.13-121.72 68.647-30.225 144.13-44.793 219.1-42.282" fill="none" stroke-opacity="0"/>
<path d="m126.8 275.84c54.816-60.286 122.39-108.92 196.96-141.75 79.943-35.199 167.85-52.164 255.15-49.24" fill="none" stroke-opacity="0"/>
<path d="m77.959 257.56c62.096-68.293 138.64-123.38 223.12-160.58 90.562-39.875 190.15-59.093 289.04-55.78" fill="none" stroke-opacity="0"/>
<path d="m32.333 423.33c33.341-138.39 123.79-262.09 245.55-335.83 121.19-73.398 271.88-96.4 409.45-62.5" fill="none"/>
<path d="m107.31 438.01c29.361-121.87 109.01-230.81 216.24-295.75 106.73-64.637 239.43-84.893 360.58-55.039" fill="none"/>
<path d="m173.51 455.33c25.442-105.6 94.462-200 187.37-256.27 92.48-56.009 207.47-73.561 312.45-47.693" fill="none"/>
</svg>
